<svg width="50" height="50" viewBox="0 0 50 50" fill="none" xmlns="http://www.w3.org/2000/svg">
<path fill-rule="evenodd" clip-rule="evenodd" d="M6.60433 12.5443L23.0627 3.87762C24.271 3.23179 25.7293 3.23179 26.9377 3.87762L43.396 12.5443C44.2502 12.9818 44.7918 13.8776 44.7918 14.836C44.7918 16.2735 43.6252 17.4401 42.2085 17.4401H7.81266C6.37516 17.4401 5.2085 16.2735 5.2085 14.836C5.2085 13.8776 5.75016 12.9818 6.60433 12.5443ZM9.37516 24.7318V33.0651C9.37516 34.7943 10.771 36.1901 12.5002 36.1901C14.2293 36.1901 15.6252 34.7943 15.6252 33.0651V24.7318C15.6252 23.0026 14.2293 21.6068 12.5002 21.6068C10.771 21.6068 9.37516 23.0026 9.37516 24.7318ZM21.8752 24.7318V33.0651C21.8752 34.7943 23.271 36.1901 25.0002 36.1901C26.7293 36.1901 28.1252 34.7943 28.1252 33.0651V24.7318C28.1252 23.0026 26.7293 21.6068 25.0002 21.6068C23.271 21.6068 21.8752 23.0026 21.8752 24.7318ZM41.6668 46.6068H8.3335C6.60433 46.6068 5.2085 45.211 5.2085 43.4818C5.2085 41.7526 6.60433 40.3568 8.3335 40.3568H41.6668C43.396 40.3568 44.7918 41.7526 44.7918 43.4818C44.7918 45.211 43.396 46.6068 41.6668 46.6068ZM34.3752 24.7318V33.0651C34.3752 34.7943 35.771 36.1901 37.5002 36.1901C39.2293 36.1901 40.6252 34.7943 40.6252 33.0651V24.7318C40.6252 23.0026 39.2293 21.6068 37.5002 21.6068C35.771 21.6068 34.3752 23.0026 34.3752 24.7318Z" fill="white"/>
</svg>
