<svg width="25" height="25" viewBox="0 0 25 25" fill="none" xmlns="http://www.w3.org/2000/svg">
<g id="&#195;&#141;cones/Bank/attach_money_24px">
<path id="icon/editor/attach_money_24px" d="M12.8 11.4C10.53 10.81 9.8 10.2 9.8 9.25C9.8 8.16 10.81 7.4 12.5 7.4C13.92 7.4 14.63 7.94 14.89 8.8C15.01 9.2 15.34 9.5 15.76 9.5H16.06C16.72 9.5 17.19 8.85 16.96 8.23C16.54 7.05 15.56 6.07 14 5.69V5C14 4.17 13.33 3.5 12.5 3.5C11.67 3.5 11 4.17 11 5V5.66C9.06 6.08 7.5 7.34 7.5 9.27C7.5 11.58 9.41 12.73 12.2 13.4C14.7 14 15.2 14.88 15.2 15.81C15.2 16.5 14.71 17.6 12.5 17.6C10.85 17.6 10 17.01 9.67 16.17C9.52 15.78 9.18 15.5 8.77 15.5H8.49C7.82 15.5 7.35 16.18 7.6 16.8C8.17 18.19 9.5 19.01 11 19.33V20C11 20.83 11.67 21.5 12.5 21.5C13.33 21.5 14 20.83 14 20V19.35C15.95 18.98 17.5 17.85 17.5 15.8C17.5 12.96 15.07 11.99 12.8 11.4Z" fill="white"/>
</g>
</svg>
