<svg width="25" height="25" viewBox="0 0 25 25" fill="none" xmlns="http://www.w3.org/2000/svg">
<g id="&#195;&#141;cones/Chart/bar_chart_24px">
<path id="icon/editor/bar_chart_24px" fill-rule="evenodd" clip-rule="evenodd" d="M12.5 5.5C13.27 5.5 13.9 6.13 13.9 6.9V18.1C13.9 18.87 13.27 19.5 12.5 19.5C11.73 19.5 11.1 18.87 11.1 18.1V6.9C11.1 6.13 11.73 5.5 12.5 5.5ZM6.9 9.7H7.1C7.87 9.7 8.5 10.33 8.5 11.1V18.1C8.5 18.87 7.87 19.5 7.1 19.5H6.9C6.13 19.5 5.5 18.87 5.5 18.1V11.1C5.5 10.33 6.13 9.7 6.9 9.7ZM19.5 14.9C19.5 14.13 18.87 13.5 18.1 13.5C17.33 13.5 16.7 14.13 16.7 14.9V18.1C16.7 18.87 17.33 19.5 18.1 19.5C18.87 19.5 19.5 18.87 19.5 18.1V14.9Z" fill="white"/>
</g>
</svg>
