<svg width="50" height="51" viewBox="0 0 50 51" fill="none" xmlns="http://www.w3.org/2000/svg">
<path d="M38.125 12.6266C37.7358 12.2365 37.2073 12.0173 36.6562 12.0173C36.1052 12.0173 35.5767 12.2365 35.1875 12.6266L25 22.7933L14.8125 12.6058C14.4233 12.2157 13.8948 11.9965 13.3437 11.9965C12.7927 11.9965 12.2642 12.2157 11.875 12.6058C11.0625 13.4183 11.0625 14.7308 11.875 15.5433L22.0625 25.7308L11.875 35.9183C11.0625 36.7308 11.0625 38.0433 11.875 38.8558C12.6875 39.6683 14 39.6683 14.8125 38.8558L25 28.6683L35.1875 38.8558C36 39.6683 37.3125 39.6683 38.125 38.8558C38.9375 38.0433 38.9375 36.7308 38.125 35.9183L27.9375 25.7308L38.125 15.5433C38.9167 14.7516 38.9167 13.4183 38.125 12.6266Z" fill="white"/>
</svg>
