<svg width="25" height="25" viewBox="0 0 25 25" fill="none" xmlns="http://www.w3.org/2000/svg">
<g id="&#195;&#141;cones/Bank/style_24px">
<path id="icon/image/style_24px" fill-rule="evenodd" clip-rule="evenodd" d="M17.8322 4.23L22.7922 16.2C23.2122 17.21 22.7222 18.38 21.7022 18.8L14.3422 21.85C14.0922 21.95 13.8322 22 13.5722 22C12.7922 21.99 12.0522 21.53 11.7422 20.77L6.78225 8.8C6.67225 8.54 6.62225 8.27 6.63225 8C6.65225 7.23 7.11225 6.51 7.86225 6.2L15.2322 3.15C15.4922 3.04 15.7622 3 16.0222 3C16.7922 3.02 17.5222 3.48 17.8322 4.23ZM4.63225 20.46L3.29225 19.9C2.28225 19.48 1.79225 18.31 2.20225 17.29L4.63225 11.43V20.46ZM8.64225 9C8.09225 9 7.64225 8.55 7.64225 8C7.64225 7.45 8.09225 7 8.64225 7C9.19225 7 9.64225 7.45 9.64225 8C9.64225 8.55 9.19225 9 8.64225 9ZM8.64225 22C7.54225 22 6.64225 21.1 6.64225 20V13.66L10.0922 22H8.64225Z" fill="white"/>
</g>
</svg>
