<svg width="47" height="37" viewBox="0 0 47 37" fill="none" xmlns="http://www.w3.org/2000/svg">
<path d="M17.4188 3.51344H30.011V25.376H17.4188V3.51344Z" fill="#FF5F00"/>
<path d="M8.9043 36.3802V34.0627C8.9043 33.1741 8.34453 32.5949 7.38505 32.5949C6.9054 32.5949 6.38569 32.7494 6.02586 33.2515C5.74616 32.8266 5.34645 32.5949 4.7468 32.5949C4.34691 32.5949 3.94739 32.7106 3.62744 33.1356V32.6721H2.78796V36.3802H3.62744V34.3329C3.62744 33.6765 3.98727 33.3673 4.54704 33.3673C5.10645 33.3673 5.38651 33.715 5.38651 34.3329V36.3802H6.22599V34.3329C6.22599 33.6765 6.62552 33.3673 7.14523 33.3673C7.705 33.3673 7.9847 33.715 7.9847 34.3329V36.3802H8.9043ZM21.3364 32.6721H19.9774V31.552H19.1379V32.6721H18.3784V33.4058H19.1377V35.1056C19.1377 35.9554 19.4975 36.4574 20.457 36.4574C20.8168 36.4574 21.2164 36.3416 21.4964 36.1872L21.2564 35.4918C21.0166 35.6463 20.7369 35.685 20.537 35.685C20.1372 35.685 19.9774 35.4532 19.9774 35.0669V33.4058H21.3364V32.6721ZM28.4521 32.5947C27.9724 32.5947 27.6527 32.8266 27.4527 33.1356V32.6721H26.6132V36.3802H27.4527V34.2944C27.4527 33.6765 27.7324 33.3288 28.2521 33.3288C28.412 33.3288 28.6119 33.3675 28.7718 33.406L29.0117 32.6336C28.8518 32.5949 28.6119 32.5949 28.4521 32.5949V32.5947ZM17.6988 32.9811C17.2989 32.7106 16.7393 32.5949 16.1396 32.5949C15.1803 32.5949 14.5408 33.0583 14.5408 33.7922C14.5408 34.4104 15.0205 34.7579 15.8599 34.8738L16.2596 34.9125C16.6994 34.9896 16.9392 35.1056 16.9392 35.2988C16.9392 35.569 16.6195 35.7622 16.0597 35.7622C15.5001 35.7622 15.0603 35.569 14.7804 35.376L14.3807 35.994C14.8205 36.3029 15.4202 36.4574 16.0196 36.4574C17.139 36.4574 17.7787 35.9554 17.7787 35.26C17.7787 34.6034 17.259 34.2557 16.4594 34.1399L16.0597 34.1012C15.6999 34.0625 15.4202 33.9854 15.4202 33.7537C15.4202 33.4833 15.6999 33.3288 16.1396 33.3288C16.6195 33.3288 17.0991 33.5218 17.3389 33.6377L17.6988 32.9811ZM40.005 32.5949C39.5251 32.5949 39.2054 32.8266 39.0054 33.1356V32.6721H38.1659V36.3802H39.0054V34.2944C39.0054 33.6765 39.2853 33.3288 39.8048 33.3288C39.9649 33.3288 40.1648 33.3675 40.3247 33.406L40.5646 32.6336C40.4047 32.5949 40.1648 32.5949 40.005 32.5949ZM29.2915 34.5261C29.2915 35.6463 30.091 36.4574 31.3303 36.4574C31.8899 36.4574 32.2896 36.3416 32.6893 36.0327L32.2896 35.376C31.9699 35.6077 31.6501 35.7235 31.2903 35.7235C30.6107 35.7235 30.131 35.26 30.131 34.5261C30.131 33.8309 30.6107 33.3673 31.2903 33.3288C31.6501 33.3288 31.9699 33.4446 32.2896 33.6765L32.6893 33.0198C32.2896 32.7106 31.8899 32.5949 31.3303 32.5949C30.091 32.5949 29.2915 33.406 29.2915 34.5261ZM37.0468 34.5261V32.6721H36.2073V33.1356C35.9274 32.7881 35.5277 32.5949 35.008 32.5949C33.9287 32.5949 33.0892 33.406 33.0892 34.5261C33.0892 35.6463 33.9287 36.4574 35.008 36.4574C35.5676 36.4574 35.9675 36.2644 36.2073 35.9167V36.3802H37.0468V34.5261ZM33.9686 34.5261C33.9686 33.8695 34.4083 33.3288 35.1278 33.3288C35.8074 33.3288 36.2872 33.8309 36.2872 34.5261C36.2872 35.1828 35.8074 35.7235 35.1278 35.7235C34.4083 35.6848 33.9686 35.1828 33.9686 34.5261ZM23.9349 32.5949C22.8156 32.5949 22.016 33.3673 22.016 34.5261C22.016 35.685 22.8154 36.4574 23.9748 36.4574C24.5344 36.4574 25.0942 36.3029 25.5339 35.9554L25.134 35.376C24.8143 35.6077 24.4146 35.7622 24.0149 35.7622C23.4952 35.7622 22.9754 35.5305 22.8554 34.8737H25.6938V34.5649C25.7339 33.3673 25.0142 32.5949 23.9347 32.5949H23.9349ZM23.9349 33.2901C24.4544 33.2901 24.8145 33.5992 24.8942 34.1786H22.8955C22.9754 33.6765 23.3353 33.2901 23.9349 33.2901ZM44.7619 34.5261V31.2043H43.9225V33.1356C43.6426 32.7881 43.2429 32.5949 42.7232 32.5949C41.6439 32.5949 40.8044 33.406 40.8044 34.5261C40.8044 35.6463 41.6439 36.4574 42.7232 36.4574C43.2829 36.4574 43.6826 36.2644 43.9225 35.9167V36.3802H44.7619V34.5261ZM41.6839 34.5261C41.6839 33.8695 42.1235 33.3288 42.8432 33.3288C43.5228 33.3288 44.0024 33.8309 44.0024 34.5261C44.0024 35.1828 43.5228 35.7235 42.8432 35.7235C42.1235 35.6848 41.6839 35.1828 41.6839 34.5261ZM13.6212 34.5261V32.6721H12.7817V33.1356C12.5018 32.7881 12.1021 32.5949 11.5824 32.5949C10.5031 32.5949 9.66365 33.406 9.66365 34.5261C9.66365 35.6463 10.5031 36.4574 11.5824 36.4574C12.1422 36.4574 12.5419 36.2644 12.7817 35.9167V36.3802H13.6212V34.5261ZM10.5031 34.5261C10.5031 33.8695 10.9429 33.3288 11.6624 33.3288C12.342 33.3288 12.8218 33.8309 12.8218 34.5261C12.8218 35.1828 12.342 35.7235 11.6624 35.7235C10.9429 35.6848 10.5031 35.1828 10.5031 34.5261Z" fill="white"/>
<path d="M18.2181 14.4448C18.2181 10.0028 20.3767 6.06282 23.6946 3.51342C21.2563 1.65939 18.1783 0.539261 14.8204 0.539261C6.865 0.539261 0.429077 6.75802 0.429077 14.4448C0.429077 22.1313 6.865 28.3503 14.8202 28.3503C18.1781 28.3503 21.2561 27.2301 23.6946 25.3759C20.3767 22.8652 18.2181 18.8867 18.2181 14.4448Z" fill="#EB001B"/>
<path d="M47 14.4448C47 22.1313 40.5641 28.3503 32.6089 28.3503C29.251 28.3503 26.173 27.2301 23.7345 25.3759C27.0924 22.8267 29.2111 18.8867 29.2111 14.4448C29.2111 10.0028 27.0523 6.06282 23.7345 3.51342C26.1728 1.65939 29.251 0.539261 32.6089 0.539261C40.5641 0.539261 47.0002 6.79673 47.0002 14.4448H47Z" fill="#F79E1B"/>
</svg>
