<?xml version="1.0" standalone="no"?>
<!DOCTYPE svg PUBLIC "-//W3C//DTD SVG 20010904//EN"
 "http://www.w3.org/TR/2001/REC-SVG-20010904/DTD/svg10.dtd">
<svg version="1.0" xmlns="http://www.w3.org/2000/svg"
 width="512.000000pt" height="512.000000pt" viewBox="0 0 512.000000 512.000000"
 preserveAspectRatio="xMidYMid meet">

<g transform="translate(0.000000,512.000000) scale(0.100000,-0.100000)"
fill="#fff" stroke="none">
<path d="M2335 4790 c-672 -69 -1285 -445 -1658 -1015 -164 -251 -284 -561
-331 -854 -9 -52 -17 -96 -19 -98 -2 -2 -39 39 -82 91 -96 117 -130 135 -194
102 -44 -23 -64 -84 -40 -128 13 -25 327 -398 348 -415 9 -7 35 -13 57 -13 39
0 52 9 210 141 228 190 252 213 260 243 18 74 -48 140 -121 122 -13 -3 -70
-45 -125 -92 -56 -48 -103 -84 -106 -81 -7 7 15 143 42 251 143 575 522 1055
1049 1327 850 439 1889 229 2503 -506 190 -227 330 -497 403 -774 24 -94 36
-121 60 -143 39 -37 86 -37 128 -2 40 34 41 76 2 215 -239 847 -952 1478
-1826 1614 -122 19 -437 27 -560 15z"/>
<path d="M1053 3658 c-30 -15 -56 -72 -48 -107 3 -16 17 -39 31 -52 25 -23 32
-24 198 -27 l172 -3 268 -820 c147 -452 266 -822 264 -823 -1 -1 -24 -10 -50
-20 -169 -62 -268 -252 -224 -426 71 -281 419 -373 616 -164 28 30 61 75 72
101 29 66 36 186 14 252 -9 27 -16 52 -16 55 0 3 155 6 344 6 l345 0 -17 -37
c-11 -26 -16 -67 -17 -128 0 -82 3 -96 32 -156 39 -79 102 -140 181 -177 48
-22 71 -27 147 -27 82 0 97 3 156 32 79 39 140 102 177 181 23 49 27 70 27
147 0 82 -3 97 -32 156 -39 79 -102 140 -181 177 l-57 27 -652 3 -652 3 -25
77 c-14 42 -26 83 -26 90 0 9 138 12 650 12 l650 0 29 28 c26 23 53 100 210
583 100 306 181 569 181 584 0 16 -11 38 -29 56 l-29 29 -372 0 -371 0 -24
-24 c-36 -36 -42 -73 -19 -115 29 -55 55 -60 347 -60 241 -1 258 -2 253 -18
-3 -10 -28 -83 -54 -163 l-49 -145 -813 0 -814 0 -52 160 -52 160 272 5 c240
4 275 7 299 23 37 24 51 58 43 100 -13 72 -11 71 -365 77 l-316 5 -42 125
c-74 224 -72 219 -103 235 -23 12 -71 15 -242 14 -128 0 -222 -5 -235 -11z
m2298 -1273 l-56 -175 -634 2 -634 3 -54 160 c-29 88 -53 165 -53 172 0 10
148 13 744 13 l743 0 -56 -175z m-1235 -790 c85 -65 86 -194 0 -260 -117 -89
-287 16 -260 161 8 43 56 101 99 121 46 21 118 11 161 -22z m1329 12 c113 -64
111 -226 -5 -284 -24 -13 -58 -23 -75 -23 -17 0 -51 10 -75 23 -50 25 -90 88
-90 142 0 54 40 117 90 143 56 28 104 28 155 -1z"/>
<path d="M2593 3266 c-23 -20 -28 -32 -28 -69 0 -52 22 -83 69 -96 97 -25 167
89 97 160 -39 38 -97 40 -138 5z"/>
<path d="M4679 2650 c-31 -9 -418 -331 -436 -364 -47 -81 47 -178 130 -134 12
6 64 47 115 91 51 44 95 77 98 75 7 -8 -15 -143 -42 -252 -87 -349 -255 -655
-504 -918 -463 -490 -1153 -721 -1815 -608 -433 74 -802 264 -1111 574 -254
255 -431 558 -521 891 -41 152 -63 185 -124 185 -26 0 -47 -8 -68 -26 -41 -34
-41 -76 -1 -217 221 -787 866 -1399 1665 -1581 177 -40 286 -51 500 -50 221 0
350 15 546 64 855 213 1524 941 1663 1809 9 52 17 96 19 98 2 2 39 -39 82 -91
75 -91 106 -116 145 -116 71 0 122 81 88 143 -15 29 -328 400 -347 412 -27 17
-55 22 -82 15z"/>
</g>
</svg>
