<svg width="43" height="52" viewBox="0 0 43 52" fill="none" xmlns="http://www.w3.org/2000/svg">
<g clip-path="url(#clip0_351_78)">
<path d="M32.4647 5.4491H42.1819C42.3989 5.4491 42.607 5.34495 42.7604 5.15955C42.9138 4.97415 43 4.7227 43 4.46051V1.00043C43 0.73824 42.9138 0.48679 42.7604 0.301392C42.607 0.115995 42.3989 0.0118379 42.1819 0.0118379H27.7837C27.5667 0.0118379 27.3586 0.115995 27.2052 0.301392C27.0518 0.48679 26.9656 0.73824 26.9656 1.00043V8.67587C26.9656 8.93806 26.8794 9.18951 26.726 9.37491C26.5726 9.56031 26.3645 9.66446 26.1475 9.66446H21.6644V0.988568C21.6644 0.726377 21.5782 0.474927 21.4248 0.28953C21.2714 0.104133 21.0633 -2.47694e-05 20.8463 -2.47694e-05H7.04368C6.11908 -0.00132398 5.20333 0.217626 4.3488 0.644305C3.49427 1.07098 2.71771 1.69702 2.06354 2.48663C1.40937 3.27623 0.890405 4.21391 0.536327 5.24605C0.182248 6.2782 -6.25069e-07 7.38456 0 8.50188V43.4921C-6.25069e-07 44.6095 0.182248 45.7158 0.536327 46.748C0.890405 47.7801 1.40937 48.7178 2.06354 49.5074C2.71771 50.297 3.49427 50.923 4.3488 51.3497C5.20333 51.7764 6.11908 51.9953 7.04368 51.9941H20.8414C21.0584 51.9941 21.2665 51.8899 21.4199 51.7045C21.5733 51.5191 21.6595 51.2677 21.6595 51.0055V42.3394H26.1426C26.3596 42.3394 26.5677 42.4436 26.7211 42.629C26.8745 42.8144 26.9607 43.0658 26.9607 43.328V50.9995C26.9607 51.2617 27.0469 51.5132 27.2003 51.6986C27.3537 51.884 27.5618 51.9881 27.7788 51.9881H42.177C42.394 51.9881 42.6021 51.884 42.7555 51.6986C42.9089 51.5132 42.9951 51.2617 42.9951 50.9995V47.5394C42.9951 47.2773 42.9089 47.0258 42.7555 46.8404C42.6021 46.655 42.394 46.5508 42.177 46.5508H32.4647C32.2478 46.5508 32.0397 46.4467 31.8863 46.2613C31.7329 46.0759 31.6467 45.8244 31.6467 45.5623V42.9188C31.6467 42.6566 31.7329 42.4051 31.8863 42.2197C32.0397 42.0343 32.2478 41.9302 32.4647 41.9302H42.1819C42.3989 41.9302 42.607 41.826 42.7604 41.6406C42.9138 41.4552 43 41.2038 43 40.9416V37.5032C43 37.2411 42.9138 36.9896 42.7604 36.8042C42.607 36.6188 42.3989 36.5147 42.1819 36.5147H32.4647C32.2478 36.5147 32.0397 36.4105 31.8863 36.2251C31.7329 36.0397 31.6467 35.7882 31.6467 35.5261V30.2391C31.6467 29.9769 31.5605 29.7254 31.407 29.54C31.2536 29.3546 31.0455 29.2505 30.8286 29.2505H27.7788C27.5618 29.2505 27.3537 29.3546 27.2003 29.54C27.0469 29.7254 26.9607 29.9769 26.9607 30.2391V35.4826C26.9607 35.7448 26.8745 35.9962 26.7211 36.1816C26.5677 36.367 26.3596 36.4712 26.1426 36.4712H21.6595V36.3031C21.6592 33.6664 20.8238 31.1298 19.3247 29.2139C17.8257 27.2979 15.7767 26.148 13.5981 26C15.7767 25.852 17.8257 24.702 19.3247 22.7861C20.8238 20.8702 21.6592 18.3336 21.6595 15.6969V15.5268H26.1426C26.3596 15.5268 26.5677 15.631 26.7211 15.8164C26.8745 16.0018 26.9607 16.2532 26.9607 16.5154V21.7609C26.9607 22.0231 27.0469 22.2745 27.2003 22.4599C27.3537 22.6453 27.5618 22.7495 27.7788 22.7495H30.8286C31.0455 22.7495 31.2536 22.6453 31.407 22.4599C31.5605 22.2745 31.6467 22.0231 31.6467 21.7609V16.4739C31.6467 16.2117 31.7329 15.9603 31.8863 15.7749C32.0397 15.5895 32.2478 15.4853 32.4647 15.4853H42.1819C42.3989 15.4853 42.607 15.3811 42.7604 15.1957C42.9138 15.0103 43 14.7589 43 14.4967V11.0485C43 10.7863 42.9138 10.5349 42.7604 10.3495C42.607 10.1641 42.3989 10.0599 42.1819 10.0599H32.4647C32.2478 10.0599 32.0397 9.95574 31.8863 9.77035C31.7329 9.58495 31.6467 9.3335 31.6467 9.07131V6.43769C31.6467 6.1755 31.7329 5.92405 31.8863 5.73865C32.0397 5.55326 32.2478 5.4491 32.4647 5.4491ZM17.1241 46.2661C17.1241 46.5283 17.0379 46.7798 16.8845 46.9652C16.7311 47.1506 16.523 47.2547 16.306 47.2547H8.71584C7.6929 47.2547 6.71183 46.7638 5.98835 45.8899C5.26487 45.016 4.8582 43.8307 4.85777 42.5945C4.85777 42.3323 4.94396 42.0809 5.09738 41.8955C5.2508 41.7101 5.45888 41.6059 5.67585 41.6059H16.3109C16.5279 41.6059 16.736 41.7101 16.8894 41.8955C17.0428 42.0809 17.129 42.3323 17.129 42.5945L17.1241 46.2661ZM17.1241 35.787C17.1241 36.0492 17.0379 36.3007 16.8845 36.4861C16.7311 36.6715 16.523 36.7756 16.306 36.7756H5.67094C5.45397 36.7756 5.24589 36.6715 5.09247 36.4861C4.93905 36.3007 4.85286 36.0492 4.85286 35.787V32.1055C4.85286 31.8433 4.93905 31.5919 5.09247 31.4065C5.24589 31.2211 5.45397 31.1169 5.67094 31.1169H13.2611C13.768 31.1162 14.2701 31.2361 14.7386 31.4699C15.2072 31.7038 15.633 32.0469 15.9918 32.4797C16.3505 32.9125 16.6352 33.4265 16.8295 33.9923C17.0238 34.5581 17.1239 35.1646 17.1241 35.7772V35.787ZM13.266 20.8929H5.67585C5.45888 20.8929 5.2508 20.7887 5.09738 20.6034C4.94396 20.418 4.85777 20.1665 4.85777 19.9043V16.2228C4.85777 15.9606 4.94396 15.7091 5.09738 15.5237C5.2508 15.3384 5.45888 15.2342 5.67585 15.2342H16.3109C16.5279 15.2342 16.736 15.3384 16.8894 15.5237C17.0428 15.7091 17.129 15.9606 17.129 16.2228C17.1288 16.8354 17.0287 17.4419 16.8344 18.0077C16.6401 18.5735 16.3554 19.0875 15.9967 19.5203C15.6379 19.9531 15.2121 20.2962 14.7436 20.53C14.275 20.7638 13.7729 20.8838 13.266 20.883V20.8929ZM17.1241 9.41534C17.1241 9.67753 17.0379 9.92898 16.8845 10.1144C16.7311 10.2998 16.523 10.4039 16.306 10.4039H5.67094C5.45397 10.4039 5.24589 10.2998 5.09247 10.1144C4.93905 9.92898 4.85286 9.67753 4.85286 9.41534C4.85329 8.17918 5.25996 6.99384 5.98344 6.11994C6.70692 5.24603 7.68799 4.75511 8.71093 4.75511H16.3011C16.5181 4.75511 16.7261 4.85926 16.8796 5.04466C17.033 5.23006 17.1192 5.48151 17.1192 5.74371L17.1241 9.41534Z" fill="#6359E9"/>
</g>
<defs>
<clipPath id="clip0_351_78">
<rect width="43" height="52" fill="white"/>
</clipPath>
</defs>
</svg>
